<svg width="161" height="43" viewBox="0 0 161 43" fill="none" xmlns="http://www.w3.org/2000/svg">
<path d="M43.6515 23.1652V12.3989H45.1867V23.1652H43.6515Z" fill="#B1924A"/>
<path d="M51.4779 23.1652V12.3989H52.7357L59.842 21.2423H59.1811V12.3989H60.7163V23.1652H59.4573L52.3522 14.3205H53.0119V23.1652H51.4779Z" fill="#B1924A"/>
<path d="M69.142 23.1652V13.736H65.4587V12.3989H74.3444V13.736H70.6562V23.1652H69.142Z" fill="#B1924A"/>
<path d="M80.6209 21.8269H86.8825V23.1652H79.0869V12.3989H86.6679V13.736H80.6258L80.6209 21.8269ZM80.4827 17.043H86.0082V18.3505H80.4827V17.043Z" fill="#B1924A"/>
<path d="M92.4388 23.1652V12.3989H96.6313C97.5726 12.3989 98.3757 12.5476 99.0408 12.845C99.6697 13.1116 100.204 13.5615 100.575 14.1364C100.945 14.7416 101.131 15.4413 101.112 16.1508C101.132 16.8584 100.945 17.5564 100.575 18.159C100.202 18.7301 99.6679 19.1771 99.0408 19.443C98.3749 19.7404 97.5718 19.8891 96.6313 19.8891H93.2822L93.9728 19.181V23.1652H92.4388ZM93.9728 19.3342L93.2822 18.5804H96.582C97.5685 18.5804 98.3129 18.3674 98.8151 17.9415C99.3174 17.5155 99.5706 16.9182 99.5747 16.1495C99.5747 15.3809 99.3215 14.7864 98.8151 14.3663C98.3087 13.9461 97.5644 13.7356 96.582 13.7348H93.2822L93.9728 12.9661V19.3342ZM99.6203 23.1652L96.889 19.2576H98.5315L101.294 23.1652H99.6203Z" fill="#B1924A"/>
<path d="M106.663 23.1652V12.3989H108.198V23.1652H106.663Z" fill="#B1924A"/>
<path d="M119.342 23.2876C118.563 23.2949 117.789 23.154 117.062 22.8724C116.385 22.6108 115.768 22.2163 115.245 21.7119C114.734 21.2157 114.326 20.622 114.048 19.9657C113.474 18.5663 113.474 16.9966 114.048 15.5972C114.326 14.9411 114.733 14.3477 115.245 13.8522C115.765 13.3483 116.381 12.9534 117.055 12.6905C118.521 12.1395 120.137 12.1368 121.605 12.6831C122.279 12.9441 122.894 13.336 123.417 13.8361C123.931 14.33 124.338 14.9243 124.614 15.5823C125.176 16.9942 125.176 18.5687 124.614 19.9806C124.339 20.6389 123.931 21.2334 123.417 21.7268C122.895 22.2277 122.279 22.62 121.605 22.881C120.883 23.1575 120.115 23.2954 119.342 23.2876ZM119.342 21.9196C119.907 21.9249 120.467 21.8204 120.992 21.6118C121.486 21.4158 121.935 21.1215 122.312 20.7468C122.687 20.3689 122.984 19.9203 123.186 19.4269C123.607 18.3705 123.607 17.1924 123.186 16.136C122.983 15.6444 122.686 15.1976 122.312 14.8211C121.935 14.4463 121.486 14.152 120.992 13.956C119.925 13.5457 118.744 13.5457 117.677 13.956C117.181 14.1534 116.73 14.4484 116.351 14.8235C115.971 15.1986 115.671 15.6461 115.467 16.1397C115.047 17.1963 115.047 18.374 115.467 19.4306C115.671 19.9245 115.971 20.3723 116.351 20.7476C116.73 21.1229 117.181 21.4181 117.677 21.6155C118.207 21.8238 118.773 21.9271 119.342 21.9196Z" fill="#B1924A"/>
<path d="M130.453 23.1652V12.3989H131.988V21.8269H137.804V23.1652H130.453Z" fill="#B1924A"/>
<path d="M141.012 23.1652L145.875 12.3989H147.394L152.275 23.1652H150.663L146.32 13.2602H146.937L142.594 23.1652H141.012ZM143.083 20.4736L143.498 19.2378H149.54L149.985 20.4736H143.083Z" fill="#B1924A"/>
<path d="M60.2982 33.7574V33.4101H62.2712V33.7574H60.2982Z" fill="#B1924A"/>
<path d="M71.7932 35.6482V30.265H73.7192C74.1165 30.2545 74.5115 30.3282 74.8784 30.4812C75.1802 30.6098 75.4376 30.8248 75.6182 31.0991C75.7895 31.3954 75.8797 31.7318 75.8797 32.0742C75.8797 32.4166 75.7895 32.753 75.6182 33.0493C75.4382 33.3242 75.1806 33.5393 74.8784 33.6672C74.5112 33.8192 74.1164 33.8924 73.7192 33.8822H72.0126L72.189 33.6981V35.6432L71.7932 35.6482ZM72.1853 33.7265L72.0126 33.5337H73.7229C74.2984 33.5337 74.7374 33.4068 75.0399 33.1531C75.3424 32.8993 75.4916 32.5417 75.4875 32.0804C75.4875 31.6132 75.3383 31.2532 75.0399 31.0003C74.7415 30.7474 74.3025 30.6205 73.7229 30.6197H72.0126L72.189 30.4269L72.1853 33.7265Z" fill="#B1924A"/>
<path d="M80.2744 35.6482V30.265H82.2004C82.5973 30.2545 82.9919 30.3282 83.3583 30.4812C83.6603 30.6097 83.9176 30.8247 84.0982 31.0991C84.2791 31.3936 84.37 31.7347 84.3596 32.0804C84.3683 32.421 84.277 32.7566 84.0969 33.0455C83.9156 33.3193 83.6585 33.5341 83.3571 33.6635C82.991 33.818 82.5963 33.8926 82.1992 33.8822H80.4877L80.664 33.6981V35.6432L80.2744 35.6482ZM80.6652 33.7265L80.4889 33.5411H82.2004C82.7759 33.5411 83.2145 33.413 83.5162 33.1568C83.8178 32.9005 83.9675 32.5417 83.965 32.0804C83.965 31.6132 83.8154 31.2532 83.5162 31.0003C83.2169 30.7474 82.7784 30.6205 82.2004 30.6197H80.4877L80.664 30.4269L80.6652 33.7265ZM84.0032 35.6482L82.6061 33.6956H83.0513L84.4484 35.6482H84.0032Z" fill="#B1924A"/>
<path d="M91.1465 35.6877C90.767 35.6914 90.3903 35.6222 90.0368 35.4838C89.7046 35.3527 89.402 35.1565 89.1465 34.9067C88.895 34.6606 88.6954 34.3664 88.5595 34.0416C88.2833 33.3477 88.2833 32.5741 88.5595 31.8802C88.6951 31.5552 88.8947 31.2609 89.1465 31.0151C89.402 30.7653 89.7046 30.5691 90.0368 30.438C90.7517 30.1658 91.5414 30.1658 92.2563 30.438C92.5867 30.5659 92.888 30.7592 93.1422 31.0063C93.3964 31.2535 93.5984 31.5494 93.736 31.8765C94.0172 32.5745 94.0172 33.3547 93.736 34.0527C93.5984 34.3798 93.3964 34.6757 93.1422 34.9228C92.888 35.17 92.5867 35.3633 92.2563 35.4912C91.9023 35.6271 91.5256 35.6938 91.1465 35.6877ZM91.1465 35.3256C91.4718 35.3286 91.7947 35.2686 92.0973 35.1489C92.3819 35.0358 92.6404 34.8654 92.8568 34.6484C93.0722 34.433 93.2432 34.1773 93.3599 33.8958C93.6 33.2919 93.6 32.6188 93.3599 32.0149C93.2407 31.7346 93.0681 31.4802 92.8519 31.266C92.6349 31.0511 92.3765 30.8829 92.0923 30.7716C91.4799 30.5361 90.8021 30.5361 90.1897 30.7716C89.9058 30.8849 89.6472 31.0537 89.4291 31.2682C89.2111 31.4828 89.0378 31.7387 88.9196 32.0211C88.6795 32.6249 88.6795 33.2981 88.9196 33.902C89.0375 34.185 89.2106 34.4416 89.4286 34.6568C89.6467 34.8719 89.9054 35.0413 90.1897 35.1551C90.4946 35.2734 90.8196 35.3313 91.1465 35.3256Z" fill="#B1924A"/>
<path d="M98.735 35.6877C98.4498 35.6892 98.1687 35.6191 97.9174 35.4838C97.6686 35.3516 97.4586 35.1564 97.3083 34.9178L97.5463 34.657C97.6798 34.8635 97.8597 35.0358 98.0716 35.16C98.2734 35.2758 98.5024 35.3355 98.735 35.333C99.4461 35.333 99.8016 34.91 99.8016 34.0639V30.6196H97.8225V30.265H100.192V34.0639C100.192 34.6027 100.069 35.008 99.8226 35.2799C99.5759 35.5518 99.2134 35.6877 98.735 35.6877Z" fill="#B1924A"/>
<path d="M105.48 35.2947H108.796V35.6482H105.089V30.265H108.68V30.6196H105.474L105.48 35.2947ZM105.429 32.7415H108.337V33.0876H105.429V32.7415Z" fill="#B1924A"/>
<path d="M115.541 35.6877C115.161 35.6914 114.785 35.6222 114.431 35.4838C114.101 35.3539 113.8 35.159 113.546 34.9104C113.295 34.6646 113.096 34.3703 112.962 34.0453C112.686 33.3463 112.686 32.568 112.962 31.869C113.097 31.5433 113.296 31.2488 113.549 31.004C113.804 30.7567 114.105 30.5618 114.435 30.4306C114.788 30.2915 115.165 30.2222 115.545 30.2267C115.907 30.224 116.266 30.2863 116.606 30.4108C116.929 30.5295 117.219 30.722 117.455 30.9731L117.208 31.2264C116.992 31.0081 116.732 30.8394 116.445 30.7321C116.16 30.6312 115.86 30.5806 115.558 30.5826C115.231 30.5792 114.907 30.6392 114.602 30.7593C114.316 30.8707 114.055 31.0388 113.835 31.2536C113.619 31.4691 113.447 31.7253 113.329 32.0075C113.089 32.6101 113.089 33.2821 113.329 33.8847C113.447 34.1683 113.62 34.4253 113.839 34.6406C114.058 34.8558 114.317 35.0249 114.602 35.1378C114.907 35.2572 115.231 35.3172 115.558 35.3145C115.86 35.3164 116.16 35.2658 116.445 35.1649C116.733 35.0593 116.993 34.8904 117.208 34.6706L117.455 34.9252C117.219 35.1762 116.928 35.3694 116.606 35.49C116.266 35.6212 115.905 35.6883 115.541 35.6877Z" fill="#B1924A"/>
<path d="M122.791 35.6482V30.6196H120.858V30.265H125.117V30.6196H123.186V35.6482H122.791Z" fill="#B1924A"/>
<path d="M133.734 33.7574V33.4101H135.707V33.7574H133.734Z" fill="#B1924A"/>
<path d="M13.4925 20.6059V35.0364L5.66977 39.0973V24.6668L13.4925 20.6059Z" fill="#B1924A"/>
<path d="M13.4925 9.94949V16.8231L5.66977 20.8852V14.0104L13.4925 9.94949Z" fill="#B1924A"/>
<path d="M24.2549 4.40318V37.6872L16.431 33.6276V8.46529L24.2549 4.40318Z" fill="#B1924A"/>
<path d="M35.0174 8.46529V18.7188H35.0161L34.9927 31.9284L27.1946 27.8786V4.40318L35.0174 8.46529Z" fill="#B1924A"/>
</svg>
